<svg width="15" height="13" viewBox="0 0 15 13" fill="none" xmlns="http://www.w3.org/2000/svg">
<path d="M2.66354 11C2.66354 10.2667 3.01402 9.6 3.78504 9.06667C4.34579 8.66667 4.83645 8.26667 5.32711 7.93334C5.3972 7.93334 5.39718 7.93334 5.39718 7.86667C5.39718 7.8 5.3972 7.8 5.32711 7.73334C5.25702 7.66667 5.257 7.6 5.11682 7.46666C4.90653 7.53333 4.41589 7.66667 3.57477 8.06667C2.94393 8.33334 2.45326 8.46667 1.96261 8.46667C0.630833 8.46667 0 7.8 0 6.53334C0 5.26667 0.700931 4.66667 2.03271 4.66667C2.59345 4.66667 3.57477 5.00001 4.90654 5.60001L5.11682 5.66667H5.18691C5.3271 5.53333 5.39718 5.46667 5.39718 5.4V5.2C5.39718 5.13334 5.3271 5.06667 5.25701 5C4.69626 4.6 4.1355 4.13334 3.64485 3.73334C3.01401 3.13334 2.66354 2.60001 2.66354 1.93334C2.66354 1.40001 2.87382 0.933339 3.29438 0.600006C3.71494 0.266673 4.2056 0.0666707 4.76635 0.0666707C6.09812 0.0666707 6.86915 1.4 7.14952 4.13333H7.71028L7.78038 3.93334C7.78038 3.73334 7.85047 3.13333 8.06075 2C8.27103 0.866667 8.76168 0.266667 9.67289 0H10.1636C10.7243 0 11.215 0.200002 11.6355 0.533335C12.0561 0.866669 12.2664 1.33334 12.2664 1.86667C12.2664 2.6 11.3551 3.66667 9.60279 4.93334L9.53272 5V5.06667C9.60281 5.13334 9.6028 5.26667 9.74299 5.33333L9.81309 5.4H9.88318C11.5654 4.73334 12.5467 4.4 12.9673 4.4C14.2991 4.4 15 5.00001 15 6.26667C15 7.60001 14.2991 8.2 12.9673 8.2C12.4766 8.2 11.4953 7.86667 10.0234 7.26667C9.95327 7.26667 9.95327 7.26667 9.81309 7.2L9.74299 7.26667L9.39252 7.86667L9.46262 7.93334C11.215 9.13334 12.1262 10.2 12.1262 11C12.1262 11.5333 11.9159 12 11.4953 12.4C11.0748 12.8 10.5841 13 10.0234 13C8.83177 13 8.13083 12.2667 7.92055 10.8C7.78037 9.6 7.71028 9.00001 7.71028 8.93334L7.64018 8.86667H7.14952L7.07945 8.93334C7.07945 9.00001 7.00934 9.66667 6.86915 10.8C6.65887 12.2667 5.95794 13 4.76635 13C4.2056 13 3.71494 12.8 3.29438 12.4C2.87382 12 2.66354 11.5333 2.66354 11Z" fill="#D8D8D8"/>
</svg>
