<svg width="8" height="7" viewBox="0 0 8 7" fill="none" xmlns="http://www.w3.org/2000/svg">
<path d="M1.42056 5.92308C1.42056 5.52821 1.60747 5.16923 2.01869 4.88205C2.31776 4.66667 2.57944 4.45129 2.84112 4.2718C2.87851 4.2718 2.8785 4.2718 2.8785 4.2359C2.8785 4.2 2.87851 4.2 2.84112 4.1641C2.80374 4.12821 2.80373 4.09231 2.72897 4.02051C2.61682 4.05641 2.35514 4.12821 1.90654 4.34359C1.5701 4.48718 1.30841 4.55897 1.04672 4.55897C0.336444 4.55897 0 4.2 0 3.51795C0 2.8359 0.37383 2.51282 1.08411 2.51282C1.38318 2.51282 1.90654 2.69231 2.61682 3.01539L2.72897 3.05128H2.76635C2.84112 2.97949 2.8785 2.94359 2.8785 2.90769V2.8C2.8785 2.7641 2.84112 2.72821 2.80374 2.69231C2.50467 2.47692 2.2056 2.22564 1.94392 2.01026C1.60747 1.68718 1.42056 1.4 1.42056 1.04103C1.42056 0.753849 1.5327 0.502567 1.757 0.32308C1.9813 0.143593 2.24299 0.0358996 2.54205 0.0358996C3.25233 0.0358996 3.66355 0.753845 3.81308 2.22564H4.11215L4.14954 2.11795C4.14954 2.01026 4.18692 1.68718 4.29907 1.07692C4.41122 0.466667 4.67289 0.14359 5.15887 0H5.42056C5.71963 0 5.98131 0.107693 6.20561 0.287181C6.42991 0.466668 6.54206 0.71795 6.54206 1.00513C6.54206 1.4 6.05607 1.97436 5.12149 2.65641L5.08412 2.69231V2.72821C5.1215 2.7641 5.12149 2.8359 5.19626 2.87179L5.23365 2.90769H5.27103C6.16823 2.54872 6.69159 2.36923 6.91589 2.36923C7.62617 2.36923 8 2.69231 8 3.37436C8 4.09231 7.62617 4.41539 6.91589 4.41539C6.65421 4.41539 6.13084 4.2359 5.34579 3.91282C5.30841 3.91282 5.30841 3.91282 5.23365 3.87692L5.19626 3.91282L5.00934 4.2359L5.04673 4.2718C5.98131 4.91795 6.46729 5.49231 6.46729 5.92308C6.46729 6.21026 6.35514 6.46154 6.13084 6.67693C5.90654 6.89231 5.64486 7 5.34579 7C4.71028 7 4.33645 6.60513 4.2243 5.81538C4.14953 5.16923 4.11215 4.84616 4.11215 4.81026L4.07477 4.77436H3.81308L3.7757 4.81026C3.7757 4.84616 3.73831 5.20513 3.66355 5.81538C3.5514 6.60513 3.17757 7 2.54205 7C2.24299 7 1.9813 6.89231 1.757 6.67693C1.5327 6.46154 1.42056 6.21026 1.42056 5.92308Z" fill="#FE5E7B"/>
</svg>
